<?xml version="1.0" standalone="no"?>
<!DOCTYPE svg PUBLIC "-//W3C//DTD SVG 20010904//EN"
 "http://www.w3.org/TR/2001/REC-SVG-20010904/DTD/svg10.dtd">
<svg version="1.0" xmlns="http://www.w3.org/2000/svg"
 width="525.000000pt" height="525.000000pt" viewBox="0 0 525.000000 525.000000"
 preserveAspectRatio="xMidYMid meet">
<metadata>
Created by potrace 1.11, written by Peter Selinger 2001-2013
</metadata>
<g transform="translate(0.000000,525.000000) scale(0.100000,-0.100000)"
fill="#000000" stroke="none">
<path d="M2595 4733 c-29 -8 -673 -184 -920 -253 -115 -32 -313 -86 -440 -121
-126 -35 -231 -63 -232 -64 -4 -1 -12 -352 -19 -745 -3 -223 -7 -499 -9 -615
-2 -115 -4 -295 -4 -399 l-1 -189 -77 7 c-43 4 -85 8 -93 8 -8 0 -46 7 -83 14
-38 8 -70 14 -73 14 -2 0 -4 -68 -4 -151 l0 -151 -62 6 c-104 11 -160 17 -221
25 -32 4 -79 7 -105 7 -43 -1 -47 -3 -45 -24 2 -12 35 -80 73 -150 39 -70 89
-163 112 -208 l40 -80 -77 -120 c-43 -65 -88 -135 -101 -154 -32 -49 -54 -104
-46 -117 9 -13 46 -20 147 -28 89 -7 157 -14 195 -20 14 -3 52 -7 85 -11 33
-3 113 -14 179 -23 134 -19 150 -29 160 -106 10 -75 18 -104 35 -118 9 -8 57
-24 106 -36 50 -12 270 -73 490 -136 566 -161 742 -209 891 -248 l131 -34 149
37 c167 43 352 93 559 152 77 22 165 46 195 54 30 8 111 31 180 50 127 36 193
55 425 118 143 39 164 54 166 115 1 20 2 41 4 46 1 6 3 29 3 53 2 41 3 42 35
42 18 0 84 7 147 15 114 14 149 18 265 30 98 10 267 36 292 46 13 5 23 17 23
28 0 24 -59 120 -157 258 -40 55 -73 105 -73 110 0 5 32 63 71 129 92 153 158
282 161 314 2 19 -1 25 -17 24 -21 -1 -201 -22 -245 -29 -14 -2 -60 -7 -102
-10 l-78 -7 -1 63 c-1 110 -9 213 -17 221 -5 5 -31 4 -58 -1 -27 -5 -93 -13
-147 -17 l-97 -7 -1 39 c-1 22 -3 62 -5 89 -3 48 -12 757 -18 1468 -2 186 -7
342 -12 346 -7 7 -176 57 -249 74 -26 6 -177 48 -505 140 -146 41 -328 92
-405 112 -77 20 -214 57 -305 81 -166 44 -178 46 -215 37z"/>
</g>
</svg>
